<svg id="Layer_1" data-name="Layer 1" xmlns="http://www.w3.org/2000/svg" viewBox="0 0 480 316.15"><defs><style>.cls-1{fill:#555;}</style></defs><title>hat</title><path class="cls-1" d="M129.4,220.07s23.73-8.84,59.55,9.77c0,0,85.6-148.87,181.44-129.33C370.39,100.5,227.1,44.21,129.4,220.07Z" transform="translate(-10 -91.92)"/><path class="cls-1" d="M194.54,232.16S276.42,87.47,376,102.83c0,0,122.82,12.56-19.07,228.89C356.9,331.72,288,282.4,194.54,232.16Z" transform="translate(-10 -91.92)"/><path class="cls-1" d="M361.08,333.58S470.42,176.8,412.26,119.11c0,0,146.55,74.9,37.22,262.39C449.48,381.5,384,348.33,361.08,333.58Z" transform="translate(-10 -91.92)"/><path class="cls-1" d="M125.91,221.92,34,252.4s51.19-11.5,115.44,66c3.15,3.8,6.31,7.91,9.17,11.93A182.3,182.3,0,0,0,203.3,374a123.61,123.61,0,0,0,133.62,2.88l44.18-27.06S239.66,260.54,194.54,236.34C194.54,236.34,159.88,215.88,125.91,221.92Z" transform="translate(-10 -91.92)"/><path class="cls-1" d="M309.93,392.66c-80.41,26.42-133.4-31.91-149.65-53.4-7.19-9.51-15.19-19.07-23.29-27.82-36.16-39-65.85-59.53-97.84-56.49C5,258.21,10.3,280.08,10.3,280.08S32,246.32,74.12,275.16l.79.54c4.43,3,44.74,30.81,68.45,60.67,0,0,66.27,88.13,141.12,69A67.4,67.4,0,0,0,309.93,392.66Z" transform="translate(-10 -91.92)"/><path class="cls-1" d="M13.33,281.48s11.63,13.26,54-7.21C67.3,274.26,35.66,253.1,13.33,281.48Z" transform="translate(-10 -91.92)"/><path class="cls-1" d="M368.53,359.86l17-9.3,61.88,32.57S431.8,385.22,368.53,359.86Z" transform="translate(-10 -91.92)"/><path class="cls-1" d="M377.37,101.68s-.93-6.41,7.89-4.56a35.44,35.44,0,0,1,13.62,6.06,9,9,0,0,1,3.47,4.13,3.91,3.91,0,0,1-.65,3.57,2.21,2.21,0,0,1-1.2.89A40.58,40.58,0,0,0,377.37,101.68Z" transform="translate(-10 -91.92)"/></svg>