<?xml version="1.0" encoding="utf-8"?>
<!-- Generator: Adobe Illustrator 16.0.0, SVG Export Plug-In . SVG Version: 6.00 Build 0)  -->
<!DOCTYPE svg PUBLIC "-//W3C//DTD SVG 1.1//EN" "http://www.w3.org/Graphics/SVG/1.1/DTD/svg11.dtd">
<svg version="1.1" id="Layer_1" xmlns="http://www.w3.org/2000/svg" xmlns:xlink="http://www.w3.org/1999/xlink" x="0px" y="0px"
	 width="612px" height="792px" viewBox="0 0 612 792" enable-background="new 0 0 612 792" xml:space="preserve">
<title>hat</title>
<path fill="#0A7610" d="M152.235,357.846c0,0,30.256-11.271,75.926,12.457c0,0,109.14-189.809,231.336-164.896
	C459.497,205.394,276.803,133.624,152.235,357.846z"/>
<path fill="#0A7610" d="M235.289,373.26c0,0,104.397-184.479,231.362-164.896c0,0,156.595,16.014-24.314,291.834
	C442.298,500.199,354.45,437.316,235.289,373.26z"/>
<path fill="#0A7610" d="M447.627,502.571c0,0,139.408-199.895,65.255-273.45c0,0,186.851,95.498,47.455,334.547
	C560.337,563.669,476.85,521.377,447.627,502.571z"/>
<path fill="#0A7610" d="M147.785,360.204L30.6,399.066c0,0,65.267-14.663,147.186,84.15c4.016,4.845,8.045,10.085,11.691,15.21
	c15.647,21.701,34.924,40.537,56.98,55.68c51.174,34.466,117.753,35.9,170.366,3.672l56.329-34.501
	c0,0-180.336-113.832-237.864-144.688C235.289,378.59,191.097,352.503,147.785,360.204z"/>
<path fill="#0A7610" d="M382.411,577.897c-102.523,33.686-170.085-40.685-190.804-68.085c-9.167-12.125-19.367-24.313-29.695-35.47
	c-46.104-49.726-83.958-75.901-124.746-72.025c-43.541,4.156-36.784,32.041-36.784,32.041s27.667-43.044,81.371-6.273l1.007,0.688
	c5.648,3.825,57.043,39.283,87.274,77.354c0,0,84.494,112.366,179.928,87.976C361.808,591.071,372.871,585.547,382.411,577.897z"/>
<path fill="#0A7610" d="M4.246,436.144c0,0,14.829,16.906,68.85-9.193C73.058,426.938,32.716,399.959,4.246,436.144z"/>
<path fill="#0A7610" d="M457.126,536.078l21.675-11.857l78.896,41.526C557.697,565.747,537.795,568.412,457.126,536.078z"/>
<path fill="#0A7610" d="M468.396,206.898c0,0-1.186-8.173,10.06-5.814c6.271,1.315,12.19,3.949,17.366,7.727
	c1.979,1.261,3.522,3.099,4.424,5.266c0.487,1.561,0.178,3.262-0.828,4.552c-0.363,0.544-0.904,0.945-1.53,1.135
	C489.674,212.45,479.345,207.943,468.396,206.898z"/>
</svg>
